# xmcd CD database file
#
# Track frame offsets:
#	150
#	22926
#	43763
#	62546
#	84923
#	105286
#	131994
#	161959
#	186719
#	208826
#
# Disc length: 3115 seconds
#
# Revision: 0
# Processed by: cddbd v1.4PL0 Copyright (c) Steve Scherf et al.
# Submitted via: CDex 1.50
#
DISCID=8a0c290a
DTITLE=Вячеслав Горский - Шопен в Африке
DYEAR=2003
DGENRE=Jazz
TTITLE0=Ф. Шопен - Этюд Ми Мажор
TTITLE1=Ф. Шуберт - Серенада
TTITLE2=В.А. Моцарт - Симфония №40
TTITLE3=Ф. Лист - Грезы Любви
TTITLE4=М. Глинка - Жаворонок
TTITLE5=Ф. Шопен - Прелюдия До минор
TTITLE6=Э. Григ - Фортепианный концерт
TTITLE7=Т. Альбиони - Адажио
TTITLE8=А. Бородин - Ноктюрн
TTITLE9=К. Листов - Романс
EXTD=YEAR: 2003
EXTT0=
EXTT1=
EXTT2=
EXTT3=
EXTT4=
EXTT5=
EXTT6=
EXTT7=
EXTT8=
EXTT9=
PLAYORDER=
